<svg id="Layer_1" data-name="Layer 1" xmlns="http://www.w3.org/2000/svg" viewBox="0 0 220 286.48"><defs><style>.cls-1{fill:#b51918;}.cls-2{fill:#1d1d1b;}.cls-3{fill:#010101;}</style></defs><rect class="cls-1" x="10.02" y="10" width="200" height="200" rx="15.26"/><path class="cls-2" d="M148,276.48V217.27h11.84v59.21Z"/><path class="cls-2" d="M174.38,233.14v32.3a1,1,0,0,1-1,1h-1V232.17s0,0,0,0v-1h12.31V221.3H172.8v-4H161.75v59.21h11.44a11.12,11.12,0,0,0,11.53-11.37v-32Z"/><path class="cls-2" d="M35.75,217.27v59.21h10.7v-11.9h2v11.9h10.7V217.27Zm12.67,37.07h-.35v0H46.81v0h-.36V227.29h2Z"/><path class="cls-2" d="M85.8,217.27v59.21H96.52v-11.9h2v11.9h10.69V217.27Zm12.68,37.07h-.36v0H96.86v0h-.34V227.29h2Z"/><polygon class="cls-2" points="73.67 229.11 73.67 266.22 73.33 266.22 73.33 266.22 72.07 266.22 72.07 266.22 71.7 266.22 71.7 217.27 61.02 217.27 61.02 276.48 83.99 276.48 83.99 229.11 73.67 229.11"/><path class="cls-2" d="M23.27,254.7v10.74a1,1,0,0,1-1,1h-1V228.29a1,1,0,0,1,1-1h1v25.45H33.94V217.27H22.33c-7.5,0-11.76,4.66-11.76,11.61v47.6H22.1c7.58,0,11.84-4.66,11.84-11.6V254.7Z"/><path class="cls-2" d="M199.37,217.27v37.12h-2V217.27h-10.8v47.07H199v1a1,1,0,0,1-1,1H186.61v10.18h11.53c7.58,0,11.84-4.89,11.84-11.6V217.27Z"/><polygon class="cls-2" points="111.07 217.27 111.07 276.48 121.73 276.48 121.73 227.44 123.7 227.44 123.7 276.48 133.43 276.48 133.43 227.44 135.39 227.44 135.39 276.48 146.12 276.48 146.12 217.27 111.07 217.27"/><path class="cls-3" d="M179.42,106.18l-16.64-3.51c-2.75-.61-5.5-10.69-3.21-12.83l12.52-11.3a3.74,3.74,0,0,0,.76-4.73v-.15A3.85,3.85,0,0,0,168.27,72l-16.18,5.19c-2.9.92-10.08-6.41-9.32-9.16L148,51.82a3.92,3.92,0,0,0-1.68-4.58h-.15a3.75,3.75,0,0,0-4.73.77L130.1,60.53c-2.14,2.29-12.22-.46-12.83-3.21l-3.51-16.8a3.79,3.79,0,0,0-3.82-3.05h0a3.89,3.89,0,0,0-3.81,3.05l-3.52,16.65c-.61,2.75-10.84,5.65-13,3.2L78.49,48a3.94,3.94,0,0,0-4.89-.77h0a3.92,3.92,0,0,0-1.68,4.58l5.19,16C78,70.76,70.7,78.09,68,77.17L51.77,72A3.87,3.87,0,0,0,48,78.54l12.37,11.3c2.29,2.14-.46,12.22-3.21,12.83l-16.64,3.51A3.79,3.79,0,0,0,37.41,110h0a3.91,3.91,0,0,0,3.06,3.82l16.64,3.51c2.75.61,5.65,10.84,3.21,13L47.8,141.46a3.75,3.75,0,0,0-.77,4.73v.15A3.85,3.85,0,0,0,51.61,148l16.19-5.19c2.75-.92,10.23,6.41,9.31,9.31l-5.19,16.19a3.92,3.92,0,0,0,1.68,4.58h.15a3.76,3.76,0,0,0,4.74-.76l11.3-12.52c2.13-2.29,12.36.45,13,3.2l3.51,16.65a3.78,3.78,0,0,0,3.82,3.05h0a3.9,3.9,0,0,0,3.81-3.05l3.51-16.65c.62-2.75,10.69-5.65,12.83-3.2l11.3,12.52a3.75,3.75,0,0,0,4.73.76h.16a3.86,3.86,0,0,0,1.68-4.58l-5.2-16.19c-.91-2.9,6.42-10.07,9.32-9.16l16.18,5.19a3.93,3.93,0,0,0,4.59-1.68v-.15a3.75,3.75,0,0,0-.77-4.73l-12.52-11.3c-2.44-2.14.46-12.37,3.21-13l16.64-3.51a3.8,3.8,0,0,0,3.06-3.82A4.06,4.06,0,0,0,179.42,106.18ZM83.83,125.42a5.5,5.5,0,1,1,5.5-5.49A5.48,5.48,0,0,1,83.83,125.42Zm9.47-33a5.8,5.8,0,1,1,5.8-5.8A5.7,5.7,0,0,1,93.3,92.44Zm18.47,11.3A6.3,6.3,0,0,1,118,110a6.2,6.2,0,0,1-6.27,6.26,6.26,6.26,0,1,1,0-12.52Zm.46,41.38a6.11,6.11,0,1,1,6.11-6.11A6.12,6.12,0,0,1,112.23,145.12Zm15.88-52.07a5.35,5.35,0,1,1,5.35-5.34A5.4,5.4,0,0,1,128.11,93.05Zm8.71,33.9a5.35,5.35,0,1,1,5.34-5.35A5.31,5.31,0,0,1,136.82,127Z"/></svg>